<svg xmlns="http://www.w3.org/2000/svg" width="24" height="24" viewBox="0 0 24 24">
  <path d="m3 18 10.7-13a1.8 1.8 0 0 1 2.6-.2l3.9 3.3a1.8 1.8 0 0 1 .2 2.6L11.9 21H6l-3-3Z" fill="#fffdf9" stroke="#fffdf9" stroke-width="4" stroke-linejoin="round"/>
  <path d="m3 18 10.7-13a1.8 1.8 0 0 1 2.6-.2l3.9 3.3a1.8 1.8 0 0 1 .2 2.6L11.9 21H6l-3-3Z" fill="#fffdf9" stroke="#302b35" stroke-width="1.4" stroke-linejoin="round"/>
  <path d="m8.8 11 7 5.8-3.9 4.2H6l-3-3 5.8-7Z" fill="#f6c2bc" stroke="#302b35" stroke-width="1.2" stroke-linejoin="round"/>
</svg>
