<svg xmlns="http://www.w3.org/2000/svg" width="24" height="24" viewBox="0 0 24 24">
  <path d="m3 21 2.6-6.4L17.7 2.5a1.7 1.7 0 0 1 2.4 0l1.4 1.4a1.7 1.7 0 0 1 0 2.4L9.4 18.4 3 21Z" fill="#fffdf9" stroke="#fffdf9" stroke-width="4" stroke-linejoin="round"/>
  <path d="m3 21 2.6-6.4L17.7 2.5a1.7 1.7 0 0 1 2.4 0l1.4 1.4a1.7 1.7 0 0 1 0 2.4L9.4 18.4 3 21Z" fill="#fffdf9" stroke="#302b35" stroke-width="1.4" stroke-linejoin="round"/>
  <path d="m5.6 14.6 3.8 3.8L3 21l2.6-6.4Z" fill="#f4ca62" stroke="#302b35" stroke-width="1.2" stroke-linejoin="round"/>
  <path d="m16.2 4 3.8 3.8" stroke="#6f4ee8" stroke-width="1.4"/>
</svg>
